<svg width="200" height="200" viewBox="0 0 200 200" xmlns="http://www.w3.org/2000/svg">
  <!-- Background Circle -->
  <circle cx="100" cy="100" r="95" fill="url(#background)" stroke="url(#border)" stroke-width="4"/>
  
  <!-- Flame Shape -->
  <path d="M100 160 
           C80 150, 70 130, 75 110
           C80 90, 90 80, 100 85
           C110 80, 120 90, 125 110
           C130 130, 120 150, 100 160 Z
           M100 140
           C90 135, 85 125, 87 115
           C89 105, 95 100, 100 103
           C105 100, 111 105, 113 115
           C115 125, 110 135, 100 140 Z" 
        fill="url(#flame)" stroke="url(#flameStroke)" stroke-width="1"/>
  
  <!-- Neural Network Pattern -->
  <g opacity="0.6">
    <!-- Nodes -->
    <circle cx="70" cy="70" r="3" fill="#8b5cf6"/>
    <circle cx="130" cy="70" r="3" fill="#8b5cf6"/>
    <circle cx="60" cy="120" r="3" fill="#8b5cf6"/>
    <circle cx="140" cy="120" r="3" fill="#8b5cf6"/>
    <circle cx="100" cy="50" r="3" fill="#8b5cf6"/>
    <circle cx="100" cy="130" r="3" fill="#8b5cf6"/>
    
    <!-- Connections -->
    <line x1="70" y1="70" x2="100" y2="50" stroke="#8b5cf6" stroke-width="1" opacity="0.4"/>
    <line x1="130" y1="70" x2="100" y2="50" stroke="#8b5cf6" stroke-width="1" opacity="0.4"/>
    <line x1="70" y1="70" x2="60" y2="120" stroke="#8b5cf6" stroke-width="1" opacity="0.4"/>
    <line x1="130" y1="70" x2="140" y2="120" stroke="#8b5cf6" stroke-width="1" opacity="0.4"/>
    <line x1="60" y1="120" x2="100" y2="130" stroke="#8b5cf6" stroke-width="1" opacity="0.4"/>
    <line x1="140" y1="120" x2="100" y2="130" stroke="#8b5cf6" stroke-width="1" opacity="0.4"/>
  </g>
  
  <!-- Definitions -->
  <defs>
    <!-- Background Gradient -->
    <radialGradient id="background" cx="50%" cy="50%">
      <stop offset="0%" stop-color="#1e293b"/>
      <stop offset="100%" stop-color="#0f172a"/>
    </radialGradient>
    
    <!-- Border Gradient -->
    <linearGradient id="border" x1="0%" y1="0%" x2="100%" y2="100%">
      <stop offset="0%" stop-color="#f59144"/>
      <stop offset="50%" stop-color="#ef4444"/>
      <stop offset="100%" stop-color="#8b5cf6"/>
    </linearGradient>
    
    <!-- Flame Gradient -->
    <linearGradient id="flame" x1="0%" y1="100%" x2="0%" y2="0%">
      <stop offset="0%" stop-color="#ef4444"/>
      <stop offset="30%" stop-color="#f59144"/>
      <stop offset="60%" stop-color="#fbbf24"/>
      <stop offset="80%" stop-color="#f59144"/>
      <stop offset="100%" stop-color="#ef4444"/>
    </linearGradient>
    
    <!-- Flame Stroke -->
    <linearGradient id="flameStroke" x1="0%" y1="100%" x2="0%" y2="0%">
      <stop offset="0%" stop-color="#dc2626"/>
      <stop offset="50%" stop-color="#ea580c"/>
      <stop offset="100%" stop-color="#dc2626"/>
    </linearGradient>
  </defs>
</svg>